<svg width="512" height="512" viewBox="0 0 512 512" fill="none" xmlns="http://www.w3.org/2000/svg">
<path d="M510.532 189.521C507.585 182.243 501.242 179.877 496.355 184.238L160.029 483.472C155.137 487.834 153.538 497.258 156.468 504.536C158.414 509.337 161.833 512 165.348 512C167.152 512 168.984 511.29 170.65 509.819L506.976 210.584C511.869 206.223 513.462 196.798 510.532 189.521Z" fill="#8B0F33"/>
<path d="M185.897 305.774C198.771 305.774 214.54 301.498 221.799 296.037C230.793 289.267 238.894 270.443 240.237 253.141C241.175 241.122 238.809 230.919 233.587 224.403C230.884 221.055 227.386 219.331 223.182 219.331C206.064 219.331 175.406 250.166 165.218 269.522C163.83 272.167 159.591 280.231 161.042 288.886C163.869 305.774 180.447 305.774 185.897 305.774ZM223.176 241.291C223.813 241.307 224.16 241.392 224.16 241.341C225.815 243.573 225.736 248.078 225.542 250.605C224.695 261.526 219.336 273.258 215.109 276.444C210.484 279.91 197.007 283.807 185.891 283.807C181.636 283.807 178.746 283.257 176.931 282.606C183.957 269.175 211.337 241.291 223.176 241.291Z" fill="#8B0F33"/>
<path d="M72.4891 419.631H188.223C191.648 419.631 196.848 417.637 199.846 415.177L496.242 171.281C499.228 168.821 501.663 162.71 501.663 157.613V83.9161C501.663 78.8277 498.938 73.9253 495.565 72.9871C464.464 64.1373 322.122 23.7092 254.601 4.52207C243.542 1.3862 232.909 0 222.783 0C163.272 0 120.788 47.9762 105.558 70.6119C79.7481 108.961 49.2785 168.72 38.2819 236.973C38.2819 236.973 34.0494 262.263 34.0494 287.545C34.0494 328.201 41.9398 370.565 62.5392 412.311C64.5588 416.419 69.0644 419.631 72.4891 419.631ZM95.785 119.552C143.378 82.7412 200.807 104.743 222.721 115.554C213.556 134.014 205.819 152.88 199.647 171.881H71.704C79.2076 152.094 87.667 134.445 95.785 119.552ZM51.5654 249.728C61.0999 258.874 68.3817 268.535 71.4935 274.24C67.2894 275.61 58.9211 275.872 49.2671 273.843C49.8189 264.3 50.7974 255.603 51.5654 249.728ZM62.4596 297.358C73.6268 297.358 85.2151 293.952 87.4678 280.436C90.6309 261.562 66.237 237.219 55.3883 227.456C57.8061 215.817 60.77 204.592 64.115 193.857H204.346C207.247 193.857 209.881 191.347 211.081 187.417C218.323 163.741 228.228 140.117 240.498 117.219C241.932 114.548 242.45 111.032 241.881 107.693C241.318 104.371 239.742 101.632 237.62 100.28C234.741 98.4459 175.947 61.8805 117.528 83.9668C127.603 69.6906 165.576 21.9595 222.789 21.9595C232.386 21.9595 242.148 23.3457 251.825 26.1012L370.58 59.8266L486.878 92.8588V153.86L192.718 395.931C191.785 396.658 189.253 397.63 188.223 397.663H73.6553C58.375 366.119 50.183 331.945 49.0623 295.989C52.9421 296.724 57.6468 297.358 62.4596 297.358Z" fill="#8B0F33"/>
<path d="M271.224 207.264C271.349 207.264 271.48 207.247 271.599 207.196L310.864 193.875C311.643 193.613 312.184 192.59 312.184 191.399V134.725C312.184 134.015 311.985 133.322 311.626 132.84C311.268 132.358 310.784 132.113 310.324 132.198L271.065 137.599C270.189 137.734 269.517 138.824 269.517 140.126V204.728C269.517 205.506 269.751 206.233 270.155 206.706C270.462 207.07 270.831 207.264 271.224 207.264Z" fill="#8B0F33"/>
<path d="M332.192 186.58C332.317 186.58 332.448 186.563 332.567 186.512L363.566 175.997C364.345 175.735 364.886 174.712 364.886 173.521V127.463C364.886 126.753 364.686 126.06 364.328 125.578C363.97 125.096 363.497 124.834 363.025 124.936L332.027 129.196C331.151 129.331 330.479 130.421 330.479 131.723V184.035C330.479 184.813 330.712 185.54 331.116 186.013C331.429 186.385 331.805 186.58 332.192 186.58Z" fill="#8B0F33"/>
<path d="M380.758 170.107C380.883 170.107 381.014 170.09 381.133 170.039L406.966 161.274C407.746 161.012 408.286 159.989 408.286 158.798V121.471C408.286 120.761 408.087 120.085 407.729 119.603C407.37 119.122 406.887 118.877 406.426 118.944L380.593 122.511C379.717 122.629 379.045 123.72 379.045 125.038V167.563C379.045 168.34 379.278 169.067 379.682 169.541C379.995 169.904 380.365 170.107 380.758 170.107Z" fill="#8B0F33"/>
<path d="M422.087 156.074C422.207 156.074 422.343 156.057 422.463 156.007L444.154 148.644C444.934 148.399 445.48 147.36 445.48 146.185V116.356C445.48 115.646 445.281 114.953 444.917 114.471C444.558 113.989 444.08 113.727 443.614 113.829L421.922 116.821C421.052 116.956 420.375 118.047 420.375 119.348V153.555C420.375 154.316 420.608 155.06 421.012 155.533C421.336 155.888 421.706 156.074 422.087 156.074Z" fill="#8B0F33"/>
<path d="M457.222 144.156C457.341 144.156 457.478 144.139 457.597 144.105L476.2 137.799C476.979 137.537 477.52 136.498 477.52 135.323V111.926C477.52 111.216 477.32 110.54 476.962 110.058C476.604 109.577 476.12 109.314 475.659 109.399L457.051 111.977C456.181 112.095 455.504 113.186 455.504 114.504V141.628C455.504 142.389 455.737 143.133 456.146 143.606C456.454 143.97 456.846 144.156 457.222 144.156Z" fill="#8B0F33"/>
<path d="M5.02476 483.471C0.138018 487.833 -1.46624 497.257 1.46921 504.535C3.40912 509.336 6.83382 511.998 10.3495 511.998C12.1529 511.998 13.9847 511.288 15.6516 509.818L103.203 431.911H62.9716L5.02476 483.471Z" fill="#8B0F33"/>
</svg>
